<svg xmlns="http://www.w3.org/2000/svg" width="19.387" height="34.722" viewBox="0 0 19.387 34.722">
  <g id="Group_24749" data-name="Group 24749" transform="translate(-1703.612 -46.557)">
    <g id="Group_24617" data-name="Group 24617" transform="translate(0 20)">
      <g id="Icon_awesome-lightbulb" data-name="Icon awesome-lightbulb" transform="translate(1704.686 36)" fill="none">
        <path d="M4.743,22.432a1.581,1.581,0,0,0,.265.873l.844,1.268a1.579,1.579,0,0,0,1.315.705h3.047a1.579,1.579,0,0,0,1.315-.705l.844-1.268a1.579,1.579,0,0,0,.265-.873l0-1.893H4.74ZM0,8.689a8.641,8.641,0,0,0,2.151,5.716,14.188,14.188,0,0,1,2.578,4.515c0,.013,0,.026.005.039h7.911c0-.013,0-.025.005-.039a14.188,14.188,0,0,1,2.578-4.515A8.688,8.688,0,1,0,0,8.689Z" stroke="none"/>
        <path d="M 10.21305561065674 24.27888870239258 C 10.40751552581787 24.27888870239258 10.58788585662842 24.18219947814941 10.69571590423584 24.01999855041504 L 11.5396556854248 22.75137901306152 C 11.60302543640137 22.65616798400879 11.63659572601318 22.54537773132324 11.63672542572021 22.43105888366699 L 11.63765907287598 21.53868865966797 L 5.741496562957764 21.53868865966797 L 5.742655277252197 22.43049812316895 C 5.742835521697998 22.54533767700195 5.776355266571045 22.65621948242188 5.839895725250244 22.75161933898926 L 6.683825492858887 24.02024841308594 C 6.791495323181152 24.18219947814941 6.971875667572021 24.27888870239258 7.166325569152832 24.27888870239258 L 10.21305561065674 24.27888870239258 M 11.92420959472656 17.95928764343262 C 12.57953453063965 16.26567268371582 13.76119709014893 14.56246948242188 14.47623538970947 13.74657821655273 C 15.70318508148193 12.34673881530762 16.3788948059082 10.55073833465576 16.3788948059082 8.689438819885254 C 16.3788948059082 4.449438571929932 12.92950534820557 0.9999386072158813 8.689635276794434 0.9999386072158813 L 8.665335655212402 0.9999786019325256 C 6.551425457000732 1.006398558616638 4.597345352172852 1.830838561058044 3.163065433502197 3.321418523788452 C 1.768185496330261 4.771048545837402 0.9999954700469971 6.677448749542236 0.9999954700469971 8.689438819885254 C 0.9999954700469971 10.55073833465576 1.675705552101135 12.34673881530762 2.902685403823853 13.74661827087402 C 3.617697715759277 14.56247425079346 4.799356937408447 16.26567268371582 5.454681396484375 17.95928764343262 L 11.92420959472656 17.95928764343262 M 10.21305561065674 25.27888870239258 L 7.166325569152832 25.27888870239258 C 6.637515544891357 25.27887916564941 6.143805503845215 25.01422882080078 5.85105562210083 24.5738582611084 L 5.007295608520508 23.30548858642578 C 4.834985733032227 23.04678916931152 4.743155479431152 22.7426586151123 4.742655277252197 22.43210792541504 L 4.740195274353027 20.53868865966797 L 12.63870525360107 20.53868865966797 L 12.63672542572021 22.43210792541504 C 12.63637542724609 22.74292945861816 12.54432582855225 23.04674911499023 12.37209510803223 23.30548858642578 L 11.52831554412842 24.57387924194336 C 11.23555564880371 25.01424789428711 10.74183559417725 25.27888870239258 10.21305561065674 25.27888870239258 Z M 12.64511585235596 18.95928764343262 L 4.733775615692139 18.95928764343262 C 4.731795310974121 18.94644927978516 4.730315685272217 18.93361854553223 4.728345394134521 18.92077827453613 C 4.242025375366211 17.28064918518066 2.966265439987183 15.3363790512085 2.150635480880737 14.40571880340576 C 0.8121654987335205 12.87863826751709 -4.504394382820465e-06 10.8800687789917 -4.504394382820465e-06 8.689438819885254 C -4.504394382820465e-06 4.096368789672852 3.625865459442139 0.01528857927769423 8.662295341491699 -2.142028824891895e-05 C 8.671693801879883 -5.034606874687597e-05 8.680248260498047 -6.349060276988894e-05 8.689639091491699 -6.349060276988894e-05 C 13.48847389221191 -6.349060276988894e-05 17.3788948059082 3.890499830245972 17.3788948059082 8.689438819885254 C 17.3788948059082 10.8800687789917 16.56672477722168 12.87863826751709 15.22825527191162 14.40571880340576 C 14.41262531280518 15.3363790512085 13.13686561584473 17.28064918518066 12.65054512023926 18.92077827453613 C 12.64857578277588 18.93410873413086 12.64709568023682 18.94644927978516 12.64511585235596 18.95928764343262 Z" stroke="none" fill="#fff"/>
      </g>
      <path id="Icon_awesome-lightbulb-2" data-name="Icon awesome-lightbulb" d="M4.743,22.432a1.581,1.581,0,0,0,.265.873l.844,1.268a1.579,1.579,0,0,0,1.315.705h3.047a1.579,1.579,0,0,0,1.315-.705l.844-1.268a1.579,1.579,0,0,0,.265-.873l0-1.893H4.74ZM8.689,4.74a3.954,3.954,0,0,0-3.95,3.95.79.79,0,0,1-1.58,0,5.536,5.536,0,0,1,5.53-5.53.79.79,0,0,1,0,1.58Z" transform="translate(1704.686 35.84)" fill="#fff"/>
    </g>
    <g id="Group_24612" data-name="Group 24612" transform="translate(1712.637 47.057)">
      <path id="Path_64032" data-name="Path 64032" d="M-1150.407,891.278a.615.615,0,0,1-.615-.615V886.2a.615.615,0,0,1,.615-.615.615.615,0,0,1,.615.615v4.459A.615.615,0,0,1-1150.407,891.278Z" transform="translate(1151.022 -885.588)" fill="#fff" stroke="#fff" stroke-width="1"/>
    </g>
    <g id="Group_24613" data-name="Group 24613" transform="translate(1704.112 50.971)">
      <path id="Path_64033" data-name="Path 64033" d="M-1248.59,918.915a.613.613,0,0,1-.435-.18l-2.545-2.544a.615.615,0,0,1,0-.87.616.616,0,0,1,.87,0l2.544,2.544a.615.615,0,0,1,0,.87A.614.614,0,0,1-1248.59,918.915Z" transform="translate(1251.749 -915.14)" fill="#fff" stroke="#fff" stroke-width="1"/>
    </g>
    <g id="Group_24614" data-name="Group 24614" transform="translate(1718.656 50.971)">
      <path id="Path_64034" data-name="Path 64034" d="M-1088.358,918.915a.613.613,0,0,1-.435-.18.615.615,0,0,1,0-.87l2.544-2.544a.616.616,0,0,1,.87,0,.615.615,0,0,1,0,.87l-2.544,2.544A.613.613,0,0,1-1088.358,918.915Z" transform="translate(1088.974 -915.14)" fill="#fff" stroke="#fff" stroke-width="1"/>
    </g>
  </g>
</svg>
